<svg width="16px" height="16px" version="1.1" viewBox="0 0 16 16" xmlns="http://www.w3.org/2000/svg">
<g fill-rule="evenodd">
<g>
<path d="m2.2704 10.918c-1.1992 1.1792-0.1864 2.3888-1.78 4.1832-0.7192 0.8104 2.9608 0.5632 4.7832-1.2296 0.7736-0.76 0.5552-1.868-0.2744-2.6832-0.828-0.816-1.9552-1.0304-2.7288-0.2704zm13.289-10.22c-0.616-0.6048-7.4288 4.8552-9.4576 6.8488-1.0064 0.9896-1.3424 1.52-1.6504 1.9168-0.1344 0.172 0.0432 0.2256 0.1224 0.2664 0.3984 0.2024 0.6776 0.392 1.0384 0.7464 0.36 0.3544 0.5528 0.6288 0.7592 1.02 0.0416 0.0792 0.096 0.2528 0.2704 0.1216 0.404-0.3032 0.944-0.6336 1.9504-1.6232 2.028-1.9944 7.5824-8.6928 6.9672-9.2968z"/>
</g>
</g>
</svg>
