<svg width="16px" height="14px" version="1.1" viewBox="0 0 16 14" xmlns="http://www.w3.org/2000/svg">
<g fill-rule="evenodd">
<g transform="translate(0 -1)">
<path d="m7.9864 6.3456c-1.3128 0-2.376 1.0648-2.376 2.376 0 1.3128 1.064 2.3768 2.376 2.3768s2.3768-1.064 2.3768-2.3768c0-1.3112-1.064-2.376-2.3768-2.376zm6.3368-2.376h-1.9008c-0.2616 0-0.5432-0.2024-0.6256-0.4504l-0.4912-1.4744c-0.0832-0.248-0.364-0.4504-0.6256-0.4504h-5.3864c-0.2616 0-0.5432 0.2024-0.6256 0.4504l-0.4912 1.4744c-0.0832 0.248-0.3648 0.4504-0.6256 0.4504h-1.9008c-0.8712 0-1.584 0.7128-1.584 1.584v7.1288c0 0.8712 0.7128 1.584 1.584 1.584h12.674c0.8712 0 1.584-0.7128 1.584-1.584v-7.1288c0-0.8712-0.7136-1.584-1.5848-1.584zm-6.3368 8.7128c-2.1872 0-3.96-1.7728-3.96-3.9608 0-2.1864 1.7728-3.96 3.96-3.96s3.9608 1.7736 3.9608 3.96c0 2.188-1.7736 3.9608-3.9608 3.9608zm5.7824-6.0208c-0.3056 0-0.5536-0.2488-0.5536-0.5544s0.248-0.5544 0.5536-0.5544c0.3064 0 0.5544 0.2488 0.5544 0.5544s-0.248 0.5544-0.5544 0.5544z"/>
</g>
</g>
</svg>
