<svg version="1.1" viewBox="0 0 117 13" xmlns="http://www.w3.org/2000/svg">
<g fill-rule="evenodd">
<g transform="translate(-250 -2320)">
<g transform="translate(0 2278)">
<path d="m259.02 44.28c1.0773 0.976 1.616 2.3333 1.616 4.072s-0.52266 3.1147-1.568 4.128-2.6453 1.52-4.8 1.52h-3.712v-11.184h3.84c2.0053 0 3.5467 0.488 4.624 1.464zm-0.288 4.12c0-2.56-1.4667-3.84-4.4-3.84h-1.888v7.664h2.096c1.3547 0 2.392-0.32266 3.112-0.968s1.08-1.5973 1.08-2.856zm13.264-1.952c0 1.8453-0.80532 3.008-2.416 3.488l2.928 4.064h-2.4l-2.672-3.76h-2.48v3.76h-1.888v-11.184h4.16c1.7067 0 2.928 0.288 3.664 0.864s1.104 1.4987 1.104 2.768zm-2.512 1.584c0.384-0.33067 0.576-0.86133 0.576-1.592s-0.19733-1.232-0.592-1.504-1.0987-0.408-2.112-0.408h-2.4v4h2.352c1.0667 0 1.792-0.16533 2.176-0.496zm13.088-5.216v1.776h-5.968v2.96h5.36v1.68h-5.36v2.992h6.16v1.776h-8.048v-11.184h7.856zm4.192 8.64l-1.12 2.544h-2.016l4.928-11.184h2.016l4.928 11.184h-2.016l-1.12-2.544h-5.6zm4.832-1.744l-2.032-4.608-2.032 4.608h4.064zm7.344 4.288h-1.888v-11.184h2.944l3.376 7.024 3.376-7.024h2.928v11.184h-1.888v-8.736l-3.904 7.76h-1.056l-3.888-7.76v8.736zm15.872-9.376c-0.352 0.224-0.528 0.56266-0.528 1.016s0.176 0.8 0.528 1.04 1.1013 0.49867 2.248 0.776 2.0107 0.66666 2.592 1.168 0.872 1.24 0.872 2.216-0.368 1.768-1.104 2.376-1.7013 0.912-2.896 0.912c-1.7493 0-3.3013-0.60266-4.656-1.808l1.184-1.424c1.1307 0.98134 2.304 1.472 3.52 1.472 0.608 0 1.0907-0.13067 1.448-0.392s0.536-0.608 0.536-1.04-0.168-0.768-0.504-1.008-0.91466-0.45867-1.736-0.656-1.4453-0.37867-1.872-0.544-0.80533-0.38133-1.136-0.648c-0.66134-0.50134-0.992-1.2693-0.992-2.304s0.376-1.832 1.128-2.392 1.6827-0.84 2.792-0.84c0.71467 0 1.424 0.11733 2.128 0.352s1.312 0.56533 1.824 0.992l-1.008 1.424c-0.33067-0.29867-0.77866-0.544-1.344-0.736s-1.1227-0.288-1.672-0.288-1 0.112-1.352 0.336zm8.048 9.376v-11.184h1.888v4.848h5.552v-4.848h1.888v11.184h-1.888v-4.576h-5.552v4.576h-1.888zm14.016-2.544l-1.12 2.544h-2.016l4.928-11.184h2.016l4.928 11.184h-2.016l-1.12-2.544h-5.6zm4.832-1.744l-2.032-4.608-2.032 4.608h4.064zm14.384-3.264c0 1.8453-0.80532 3.008-2.416 3.488l2.928 4.064h-2.4l-2.672-3.76h-2.48v3.76h-1.888v-11.184h4.16c1.7067 0 2.928 0.288 3.664 0.864s1.104 1.4987 1.104 2.768zm-2.512 1.584c0.384-0.33067 0.576-0.86133 0.576-1.592s-0.19733-1.232-0.592-1.504-1.0987-0.408-2.112-0.408h-2.4v4h2.352c1.0667 0 1.792-0.16533 2.176-0.496zm13.088-5.216v1.776h-5.968v2.96h5.36v1.68h-5.36v2.992h6.16v1.776h-8.048v-11.184h7.856z"/>
</g>
</g>
</g>
</svg>
