<svg  width="13px" height="16px" version="1.1" viewBox="0 0 13 16" xmlns="http://www.w3.org/2000/svg">
<g fill-rule="evenodd">
<g transform="translate(-1)">
<path d="m5.076 2.1712v9.4c-0.512-0.1072-1.1072-0.0664-1.6976 0.152-1.3288 0.4936-1.7976 1.6944-1.4456 2.6816 0.352 0.988 1.392 1.3872 2.72 0.8936 1.128-0.4184 1.8672-1.348 1.8488-2.2232v-7.7648l5.624-1.2888v5.9648c-0.5128-0.1064-1.108-0.0664-1.6984 0.1528-1.328 0.4936-1.7968 1.6944-1.4448 2.6816 0.3512 0.988 1.3912 1.3872 2.7192 0.8944 1.1288-0.4192 1.8672-1.3488 1.8496-2.2232v-11.142l-8.4752 1.8208z"/>
</g>
</g>
</svg>
